<?xml version="1.0" encoding="UTF-8"?>
<svg version="1.1" xmlns="http://www.w3.org/2000/svg" width="188" height="188">
<path d="M0 0 C1.60681641 0.56074219 1.60681641 0.56074219 3.24609375 1.1328125 C14.865978 5.6031374 24.057972 12.4581316 33 21 C33.61488281 21.54011719 34.22976562 22.08023438 34.86328125 22.63671875 C48.34717366 34.94270792 57.06207419 54.92710016 58.18017578 72.89550781 C58.75647697 86.45820902 58.52740113 99.11318175 54 112 C53.62617188 113.07121094 53.25234375 114.14242187 52.8671875 115.24609375 C48.3968626 126.865978 41.5418684 136.057972 33 145 C32.45988281 145.61488281 31.91976562 146.22976562 31.36328125 146.86328125 C19.05729208 160.34717366 -0.92710016 169.06207419 -18.89550781 170.18017578 C-32.45820902 170.75647697 -45.11318175 170.52740113 -58 166 C-59.07121094 165.62617188 -60.14242187 165.25234375 -61.24609375 164.8671875 C-72.865978 160.3968626 -82.057972 153.5418684 -91 145 C-91.61488281 144.45988281 -92.22976562 143.91976562 -92.86328125 143.36328125 C-106.34717366 131.05729208 -115.06207419 111.07289984 -116.18017578 93.10449219 C-116.75647697 79.54179098 -116.52740113 66.88681825 -112 54 C-111.43925781 52.39318359 -111.43925781 52.39318359 -110.8671875 50.75390625 C-106.3968626 39.134022 -99.5418684 29.942028 -91 21 C-90.45988281 20.38511719 -89.91976562 19.77023438 -89.36328125 19.13671875 C-81.16441663 10.15307615 -69.3986423 3.8562571 -58 0 C-56.32164063 -0.5878125 -56.32164063 -0.5878125 -54.609375 -1.1875 C-37.15942284 -6.44438935 -17.18257697 -6.03658847 0 0 Z M-85 21 C-85.75925781 21.66515625 -86.51851562 22.3303125 -87.30078125 23.015625 C-102.91110508 37.57447624 -112.07666753 59.17197747 -113.03125 80.33984375 C-112.84341994 102.33943957 -105.77406323 122.42083506 -91 139 C-90.33484375 139.75925781 -89.6696875 140.51851562 -88.984375 141.30078125 C-74.42552376 156.91110508 -52.82802253 166.07666753 -31.66015625 167.03125 C-9.66056043 166.84341994 10.42083506 159.77406323 27 145 C27.75925781 144.33484375 28.51851562 143.6696875 29.30078125 142.984375 C44.91110508 128.42552376 54.07666753 106.82802253 55.03125 85.66015625 C54.84341994 63.66056043 47.77406323 43.57916494 33 27 C32.00226563 25.86111328 32.00226563 25.86111328 30.984375 24.69921875 C16.42552376 9.08889492 -5.17197747 -0.07666753 -26.33984375 -1.03125 C-48.33943957 -0.84341994 -68.42083506 6.22593677 -85 21 Z " fill="#151723" transform="translate(123,11)"/>
<path d="M0 0 C3.4837024 2.62096732 6.81502386 5.41204772 9.4921875 8.875 C9.4921875 9.535 9.4921875 10.195 9.4921875 10.875 C10.1521875 10.875 10.8121875 10.875 11.4921875 10.875 C11.4921875 11.865 11.4921875 12.855 11.4921875 13.875 C6.91350944 13.2939935 3.4288893 11.31727674 -0.5078125 9.0625 C-13.76413011 1.82179007 -27.47049591 -1.87857702 -42.46875 1.72265625 C-50.42252672 4.14158835 -57.05726998 7.69745833 -63.8984375 12.30078125 C-66.5078125 13.875 -66.5078125 13.875 -69.5078125 13.875 C-68.75418544 7.27786469 -64.34960273 4.00948051 -59.5078125 -0.125 C-41.35973159 -13.42019219 -18.32892262 -12.32553637 0 0 Z " fill="#2B2B36" transform="translate(123.5078125,125.125)"/>
<path d="M0 0 C2.43119623 1.87015094 3.64069173 3.28138345 5 6 C5.41676403 10.97712427 5.65548795 15.51025466 3.625 20.125 C1.10760727 23.02968392 0.09548659 22.99229947 -3.875 23.3125 C-7.07613675 23.28345157 -7.79001963 23.16152336 -10.4375 21.125 C-13.89203946 16.42682634 -13.47445484 11.66891729 -13 6 C-10.28550701 -0.16930226 -6.49296503 -0.96430174 0 0 Z " fill="#151723" transform="translate(126,75)"/>
<path d="M0 0 C2.43119623 1.87015094 3.64069173 3.28138345 5 6 C5.41676403 10.97712427 5.65548795 15.51025466 3.625 20.125 C1.10760727 23.02968392 0.09548659 22.99229947 -3.875 23.3125 C-7.07613675 23.28345157 -7.79001963 23.16152336 -10.4375 21.125 C-13.89203946 16.42682634 -13.47445484 11.66891729 -13 6 C-10.28550701 -0.16930226 -6.49296503 -0.96430174 0 0 Z " fill="#151723" transform="translate(70,75)"/>
<path d="M0 0 C0.99 0.33 1.98 0.66 3 1 C-1.33333333 5.33333333 -5.66666667 9.66666667 -10 14 C-9.54261927 9.31808451 -7.80889606 7.36895826 -4.4375 4.1875 C-3.61121094 3.39730469 -2.78492188 2.60710937 -1.93359375 1.79296875 C-1.29550781 1.20128906 -0.65742187 0.60960938 0 0 Z " fill="#43424C" transform="translate(64,125)"/>
</svg>
