<?xml version="1.0" encoding="UTF-8"?>
<svg version="1.1" xmlns="http://www.w3.org/2000/svg" width="512" height="512">
<path d="M0 0 C-0.46055786 1.07761597 -0.46055786 1.07761597 -0.93041992 2.17700195 C-17.71775389 41.70683868 -24.31935535 79.87721718 -8.47265625 121.05078125 C4.43227995 152.98759183 30.15155987 179.59803602 61.87890625 193.12890625 C105.56485081 210.94828017 144.74463441 203.4981532 187 186 C186.37716917 192.78642946 184.74889404 199.03857963 182.8125 205.5625 C182.49643799 206.62879639 182.18037598 207.69509277 181.85473633 208.79370117 C173.60080928 236.15543824 160.01134802 258.84581693 141 280 C140.09701172 281.01320313 140.09701172 281.01320313 139.17578125 282.046875 C133.46493617 288.08857508 126.65201265 293.04962463 120 298 C119.42781738 298.42716309 118.85563477 298.85432617 118.26611328 299.29443359 C83.94653172 324.5041923 39.80191513 334.15621102 -2.10546875 328.3203125 C-33.02481501 323.54863569 -62.48718261 310.807803 -86 290 C-86.48952148 289.57074219 -86.97904297 289.14148438 -87.48339844 288.69921875 C-120.68353464 259.47804624 -140.76341448 218.56177767 -143.72851562 174.38476562 C-146.08262494 128.02450627 -130.38762567 85.49464777 -99.66015625 50.94140625 C-98.78230469 49.97074219 -97.90445313 49.00007813 -97 48 C-96.40058594 47.32839844 -95.80117187 46.65679687 -95.18359375 45.96484375 C-89.47641531 39.91437638 -82.65489568 34.9525209 -76 30 C-75.42781738 29.57283691 -74.85563477 29.14567383 -74.26611328 28.70556641 C-58.37327035 17.03133504 -40.1428065 8.85309455 -21.18701172 3.60546875 C-18.99411752 2.99837145 -16.81177451 2.36085697 -14.62890625 1.71875 C-4.23910652 -1.25237244 -4.23910652 -1.25237244 0 0 Z M-47.375 37.375 C-48.58349609 38.05067017 -48.58349609 38.05067017 -49.81640625 38.73999023 C-57.08711888 42.89623127 -63.60105886 47.61552514 -70 53 C-71.30324219 54.09248047 -71.30324219 54.09248047 -72.6328125 55.20703125 C-89.00638872 69.45050273 -101.08776281 86.27004731 -110 106 C-110.81597656 107.76537109 -110.81597656 107.76537109 -111.6484375 109.56640625 C-126.27615994 143.38837361 -125.69192256 183.47425743 -112.25 217.56640625 C-97.10166347 254.07147792 -68.80047321 282.49734468 -32.4465332 297.92797852 C-5.3513726 308.83892293 24.50178807 311.07512335 53 305 C54.90072266 304.59974609 54.90072266 304.59974609 56.83984375 304.19140625 C92.57493067 295.61040886 124.54247963 272.06676628 144 241 C145.7297209 238.14838784 147.40977877 235.27185304 149.0625 232.375 C149.45695312 231.68776855 149.85140625 231.00053711 150.2578125 230.29248047 C152.45192161 226.38722769 152.45192161 226.38722769 153 222 C151.86691406 222.2165625 150.73382813 222.433125 149.56640625 222.65625 C107.44741115 230.02172577 63.25098813 223.59570714 27.55859375 199.015625 C-8.98797358 172.78633657 -31.26372789 135.64217508 -38.5859375 91.46484375 C-39.3574852 84.7851655 -39.24020239 78.02829179 -39.25 71.3125 C-39.25233643 70.58499542 -39.25467285 69.85749084 -39.25708008 69.10794067 C-39.27190332 56.85973013 -38.30320523 45.05069879 -36 33 C-40.47278352 33 -43.53085529 35.22216814 -47.375 37.375 Z " fill="#000000" transform="translate(234,92)"/>
<path d="M0 0 C7.26 0 14.52 0 22 0 C22 12.21 22 24.42 22 37 C14.74 37 7.48 37 0 37 C0 24.79 0 12.58 0 0 Z " fill="#000000" transform="translate(245,450)"/>
<path d="M0 0 C12.21 0 24.42 0 37 0 C37 7.26 37 14.52 37 22 C24.79 22 12.58 22 0 22 C0 14.74 0 7.48 0 0 Z " fill="#000000" transform="translate(450,245)"/>
<path d="M0 0 C12.21 0 24.42 0 37 0 C37 7.26 37 14.52 37 22 C24.79 22 12.58 22 0 22 C0 14.74 0 7.48 0 0 Z " fill="#000000" transform="translate(25,245)"/>
<path d="M0 0 C7.26 0 14.52 0 22 0 C22 12.21 22 24.42 22 37 C14.74 37 7.48 37 0 37 C0 24.79 0 12.58 0 0 Z " fill="#000000" transform="translate(245,25)"/>
<path d="M0 0 C5.0261109 0.53676912 8.62239409 2.94418501 12.8125 5.5625 C13.50537109 5.98724609 14.19824219 6.41199219 14.91210938 6.84960938 C16.61216951 7.89309456 18.30665476 8.94565296 20 10 C14.76227867 21.05031451 8.78669692 31.81995462 2 42 C-2.76551013 40.62394084 -6.7248553 38.53221934 -10.875 35.875 C-11.46796875 35.50246094 -12.0609375 35.12992188 -12.671875 34.74609375 C-14.1181343 33.83635 -15.55958046 32.91896202 -17 32 C-15.50047648 26.68046124 -13.03100832 22.36819998 -10.1875 17.6875 C-9.28696221 16.18276908 -8.3872151 14.67756467 -7.48828125 13.171875 C-6.84366943 12.09583008 -6.84366943 12.09583008 -6.18603516 10.99804688 C-4.03757465 7.37865601 -2.01526814 3.69465826 0 0 Z " fill="#000000" transform="translate(361,51)"/>
<path d="M0 0 C2.95097333 3.53855651 5.41966375 7.15147793 7.75 11.125 C8.36359375 12.15882813 8.9771875 13.19265625 9.609375 14.2578125 C11 17 11 17 11 20 C10.26885986 20.40839111 9.53771973 20.81678223 8.78442383 21.23754883 C6.05376892 22.76329278 3.32350786 24.28973854 0.59350586 25.81665039 C-1.16197189 26.79822596 -2.91789677 27.77900173 -4.67382812 28.75976562 C-5.78564453 29.38173828 -6.89746094 30.00371094 -8.04296875 30.64453125 C-9.06414795 31.21534424 -10.08532715 31.78615723 -11.13745117 32.37426758 C-13.02302048 33.44514229 -14.87508583 34.57763463 -16.68481445 35.7722168 C-17.44882568 36.17738525 -18.21283691 36.58255371 -19 37 C-23.51107404 35.49630865 -24.53170163 32.14872733 -26.75 28.125 C-27.17410156 27.39152344 -27.59820312 26.65804687 -28.03515625 25.90234375 C-28.43089844 25.19464844 -28.82664062 24.48695313 -29.234375 23.7578125 C-29.59756836 23.1095752 -29.96076172 22.46133789 -30.33496094 21.79345703 C-31 20 -31 20 -30 17 C-27.67089844 15.421875 -27.67089844 15.421875 -24.609375 13.75 C-23.50722656 13.1415625 -22.40507812 12.533125 -21.26953125 11.90625 C-20.09651958 11.27052803 -18.92334091 10.63511411 -17.75 10 C-15.47370127 8.75046819 -13.19765058 7.50048437 -10.921875 6.25 C-9.90706055 5.69828125 -8.89224609 5.1465625 -7.84667969 4.578125 C-5.19400551 3.1075516 -2.59035437 1.57725383 0 0 Z " fill="#000000" transform="translate(450,131)"/>
<path d="M0 0 C2.61709448 1.80309134 3.62245085 3.65768664 5.14697266 6.44116211 C5.70707031 7.44985352 6.26716797 8.45854492 6.84423828 9.49780273 C7.41722656 10.55547852 7.99021484 11.6131543 8.58056641 12.70288086 C9.72736471 14.78249388 10.87448907 16.86192714 12.02197266 18.94116211 C12.77716187 20.32815308 12.77716187 20.32815308 13.54760742 21.74316406 C14.9974069 24.43210606 14.9974069 24.43210606 16.76782227 27.04345703 C17.38669312 28.20518433 17.38669312 28.20518433 18.01806641 29.39038086 C16.51437506 33.9014549 13.16679373 34.92208249 9.14306641 37.14038086 C8.40958984 37.56448242 7.67611328 37.98858398 6.92041016 38.42553711 C6.21271484 38.8212793 5.50501953 39.21702148 4.77587891 39.62475586 C4.1276416 39.98794922 3.4794043 40.35114258 2.81152344 40.7253418 C1.01806641 41.39038086 1.01806641 41.39038086 -1.98193359 40.39038086 C-3.12939453 38.81494141 -3.12939453 38.81494141 -4.21630859 36.77709961 C-4.62252441 36.0286377 -5.02874023 35.28017578 -5.44726562 34.5090332 C-5.87120605 33.70675293 -6.29514648 32.90447266 -6.73193359 32.07788086 C-7.61891397 30.43799475 -8.50693958 28.79867357 -9.39599609 27.15991211 C-9.83202148 26.35118652 -10.26804688 25.54246094 -10.71728516 24.70922852 C-13.35662842 19.86975317 -16.17345661 15.13317312 -18.98193359 10.39038086 C-15.44782539 7.4615619 -11.83926593 4.90395126 -7.91943359 2.51538086 C-6.89720703 1.87858398 -5.87498047 1.24178711 -4.82177734 0.58569336 C-1.98193359 -0.60961914 -1.98193359 -0.60961914 0 0 Z " fill="#000000" transform="translate(149.98193359375,51.609619140625)"/>
<path d="M0 0 C1.14746094 1.57543945 1.14746094 1.57543945 2.234375 3.61328125 C2.64059082 4.36174316 3.04680664 5.11020508 3.46533203 5.88134766 C3.88927246 6.68362793 4.31321289 7.4859082 4.75 8.3125 C5.63698037 9.95238611 6.52500598 11.59170729 7.4140625 13.23046875 C7.85008789 14.03919434 8.28611328 14.84791992 8.73535156 15.68115234 C11.37469482 20.52062769 14.19152301 25.25720774 17 30 C13.46589179 32.92881895 9.85733233 35.4864296 5.9375 37.875 C4.91527344 38.51179688 3.89304687 39.14859375 2.83984375 39.8046875 C0 41 0 41 -1.96606445 40.41772461 C-4.70314145 38.50988568 -5.77733411 36.43045133 -7.3828125 33.51171875 C-7.99253906 32.41279297 -8.60226562 31.31386719 -9.23046875 30.18164062 C-10.16826172 28.45204102 -10.16826172 28.45204102 -11.125 26.6875 C-11.75792969 25.54603516 -12.39085937 24.40457031 -13.04296875 23.22851562 C-15.61575128 18.55544672 -18.11260134 13.99777213 -20 9 C-17.23907588 7.29586336 -14.46486002 5.61469315 -11.6875 3.9375 C-10.50897461 3.20950195 -10.50897461 3.20950195 -9.30664062 2.46679688 C-8.54931641 2.01240234 -7.79199219 1.55800781 -7.01171875 1.08984375 C-6.31522217 0.66566162 -5.61872559 0.24147949 -4.90112305 -0.19555664 C-3 -1 -3 -1 0 0 Z " fill="#000000" transform="translate(364,420)"/>
<path d="M0 0 C4.76551013 1.37605916 8.7248553 3.46778066 12.875 6.125 C13.46796875 6.49753906 14.0609375 6.87007813 14.671875 7.25390625 C16.1181343 8.16365 17.55958046 9.08103798 19 10 C17.49851885 15.29689183 15.06608687 19.63584003 12.25 24.3125 C11.80479004 25.06072021 11.35958008 25.80894043 10.90087891 26.57983398 C7.7588655 31.82734966 4.51133642 36.98992242 1 42 C-3.39383706 40.40376856 -7.28995807 38.21975667 -11.3125 35.875 C-11.95767578 35.50246094 -12.60285156 35.12992187 -13.26757812 34.74609375 C-14.84675945 33.83367787 -16.42361864 32.91724491 -18 32 C-12.76227867 20.94968549 -6.78669692 10.18004538 0 0 Z " fill="#000000" transform="translate(149,419)"/>
<path d="M0 0 C6.21727536 2.34794162 11.88695392 5.65866106 17.6875 8.875 C18.84056641 9.50019531 19.99363281 10.12539063 21.18164062 10.76953125 C22.28056641 11.37925781 23.37949219 11.98898437 24.51171875 12.6171875 C25.51678467 13.17003418 26.52185059 13.72288086 27.55737305 14.29248047 C30.10860075 16.0759174 31.21704691 16.99239754 32 20 C31.30908203 22.01464844 31.30908203 22.01464844 30.0078125 24.109375 C29.55019531 24.86347656 29.09257812 25.61757813 28.62109375 26.39453125 C28.12738281 27.17183594 27.63367188 27.94914062 27.125 28.75 C26.63902344 29.54277344 26.15304687 30.33554687 25.65234375 31.15234375 C24.4489169 33.11086195 23.23135033 35.05896138 22 37 C10.94968549 31.76227867 0.18004538 25.78669692 -10 19 C-8.62394084 14.23448987 -6.53221934 10.2751447 -3.875 6.125 C-3.50246094 5.53203125 -3.12992187 4.9390625 -2.74609375 4.328125 C-1.83635 2.8818657 -0.91896202 1.44041954 0 0 Z " fill="#000000" transform="translate(429,344)"/>
<path d="M0 0 C4.51107404 1.50369135 5.53170163 4.85127267 7.75 8.875 C8.38615234 9.97521484 8.38615234 9.97521484 9.03515625 11.09765625 C9.43089844 11.80535156 9.82664063 12.51304687 10.234375 13.2421875 C10.59756836 13.8904248 10.96076172 14.53866211 11.33496094 15.20654297 C12 17 12 17 11 20 C9.42456055 21.14746094 9.42456055 21.14746094 7.38671875 22.234375 C6.63825684 22.64059082 5.88979492 23.04680664 5.11865234 23.46533203 C4.31637207 23.88927246 3.5140918 24.31321289 2.6875 24.75 C1.04761389 25.63698037 -0.59170729 26.52500598 -2.23046875 27.4140625 C-3.03919434 27.85008789 -3.84791992 28.28611328 -4.68115234 28.73535156 C-9.52062769 31.37469482 -14.25720774 34.19152301 -19 37 C-21.92881895 33.46589179 -24.4864296 29.85733233 -26.875 25.9375 C-27.51179688 24.91527344 -28.14859375 23.89304687 -28.8046875 22.83984375 C-30 20 -30 20 -29.42211914 18.03393555 C-27.49719576 15.28088204 -25.38804754 14.21774576 -22.44140625 12.6171875 C-20.77948242 11.70259766 -20.77948242 11.70259766 -19.08398438 10.76953125 C-17.92189453 10.14433594 -16.75980469 9.51914062 -15.5625 8.875 C-13.27171573 7.62316352 -10.98133251 6.37059281 -8.69140625 5.1171875 C-7.67248291 4.56659668 -6.65355957 4.01600586 -5.60375977 3.44873047 C-2.88808984 1.98329619 -2.88808984 1.98329619 0 0 Z " fill="#000000" transform="translate(81,344)"/>
<path d="M0 0 C11.05031451 5.23772133 21.81995462 11.21330308 32 18 C30.62394084 22.76551013 28.53221934 26.7248553 25.875 30.875 C25.50246094 31.46796875 25.12992188 32.0609375 24.74609375 32.671875 C23.83635 34.1181343 22.91896202 35.55958046 22 37 C15.78272464 34.65205838 10.11304608 31.34133894 4.3125 28.125 C2.58290039 27.18720703 2.58290039 27.18720703 0.81835938 26.23046875 C-0.28056641 25.62074219 -1.37949219 25.01101562 -2.51171875 24.3828125 C-3.51678467 23.82996582 -4.52185059 23.27711914 -5.55737305 22.70751953 C-8.10860075 20.9240826 -9.21704691 20.00760246 -10 17 C-9.30908203 14.98535156 -9.30908203 14.98535156 -8.0078125 12.890625 C-7.55019531 12.13652344 -7.09257813 11.38242188 -6.62109375 10.60546875 C-5.88052734 9.43951172 -5.88052734 9.43951172 -5.125 8.25 C-4.39603516 7.06083984 -4.39603516 7.06083984 -3.65234375 5.84765625 C-2.4489169 3.88913805 -1.23135033 1.94103862 0 0 Z " fill="#000000" transform="translate(61,131)"/>
</svg>
