<?xml version="1.0" encoding="UTF-8"?>
<svg version="1.1" xmlns="http://www.w3.org/2000/svg" width="50" height="50">
<path d="M0 0 C3.84940149 0.46979164 6.42300946 0.82234917 9.25390625 3.5390625 C9.79853516 4.03664063 10.34316406 4.53421875 10.90429688 5.046875 C12.01571889 6.1046241 13.12507615 7.16454672 14.23242188 8.2265625 C17.39684908 11.15960826 17.39684908 11.15960826 21.4609375 12.18359375 C25.83514946 10.14453802 29.26179767 6.9687611 32.91601562 3.86132812 C33.51220703 3.36955078 34.10839844 2.87777344 34.72265625 2.37109375 C35.25640869 1.91661865 35.79016113 1.46214355 36.34008789 0.99389648 C38 0 38 0 42 0 C42.02465504 4.39656173 42.04283842 8.7930872 42.05493164 13.18969727 C42.05997121 14.68644918 42.06680287 16.18319616 42.07543945 17.67993164 C42.08752159 19.82699807 42.09323191 21.97399962 42.09765625 24.12109375 C42.10289307 25.4145874 42.10812988 26.70808105 42.11352539 28.04077148 C42 31 42 31 41 32 C38.0546443 32.10110353 35.1332244 32.13969279 32.1875 32.1328125 C30.86141724 32.13424759 30.86141724 32.13424759 29.50854492 32.13571167 C27.63557871 32.13639351 25.76261014 32.13453893 23.88964844 32.13037109 C21.01231612 32.12502289 18.13513992 32.13031593 15.2578125 32.13671875 C13.44270799 32.13605797 11.62760357 32.13477681 9.8125 32.1328125 C8.94584717 32.13483673 8.07919434 32.13686096 7.1862793 32.13894653 C1.11495009 32.11495009 1.11495009 32.11495009 0 31 C-0.08790975 28.70848583 -0.10694038 26.41427476 -0.09765625 24.12109375 C-0.0962413 23.4344313 -0.09482635 22.74776886 -0.09336853 22.04029846 C-0.08775479 19.83932199 -0.07520007 17.63844591 -0.0625 15.4375 C-0.05748676 13.94856917 -0.05292355 12.45963676 -0.04882812 10.97070312 C-0.03778093 7.31376925 -0.02050713 3.65689442 0 0 Z M2 3 C2 4.32 2 5.64 2 7 C4.07131295 8.95016626 6.0333083 10.58359842 8.3125 12.25 C8.90740234 12.70890625 9.50230469 13.1678125 10.11523438 13.640625 C13.66402136 16.37631367 13.66402136 16.37631367 18 17 C18 16.34 18 15.68 18 15 C15.74453286 13.06548054 13.48262823 11.23917089 11.125 9.4375 C10.47402344 8.93025391 9.82304687 8.42300781 9.15234375 7.90039062 C5.73174276 5.20791301 5.73174276 5.20791301 2 3 Z M34.32714844 6.17724609 C31.55776873 9.98081285 32.40057722 14.81541282 32.625 19.3125 C32.65207031 20.33923828 32.67914063 21.36597656 32.70703125 22.42382812 C32.77756746 24.95137576 32.87606571 27.47460043 33 30 C35.97065509 29.65772428 35.97065509 29.65772428 39 29 C40.30475618 26.39048764 40.11301572 24.47298715 40.09765625 21.5546875 C40.09443359 20.47832031 40.09121094 19.40195312 40.08789062 18.29296875 C40.07532227 16.60107422 40.07532227 16.60107422 40.0625 14.875 C40.05573242 13.17150391 40.05573242 13.17150391 40.04882812 11.43359375 C40.03701615 8.62234362 40.02054507 5.8111977 40 3 C37.68934375 3 35.99358984 4.76530307 34.32714844 6.17724609 Z " fill="#000000" transform="translate(3,8)"/>
</svg>
